<svg width="34" height="34" viewBox="0 0 34 34" fill="none" xmlns="http://www.w3.org/2000/svg">
<path d="M17.002 26.0409C14.542 26.0409 14.252 26.0279 13.292 25.9859C12.5433 25.9613 11.8044 25.8091 11.107 25.5359C10.5101 25.3036 9.96813 24.9498 9.51537 24.4969C9.06261 24.0439 8.70899 23.5018 8.47695 22.9049C8.21426 22.2049 8.07257 21.4654 8.05795 20.7179C8.00195 19.7599 8.00195 19.4459 8.00195 17.0049C8.00195 14.5379 8.01495 14.2499 8.05795 13.2949C8.07289 12.5484 8.21457 11.8099 8.47695 11.1109C8.70872 10.5132 9.06258 9.97046 9.51595 9.51727C9.96931 9.06408 10.5122 8.71042 11.11 8.47888C11.8086 8.21509 12.5473 8.07303 13.294 8.05888C14.249 8.00488 14.563 8.00488 17.002 8.00488C19.482 8.00488 19.767 8.01788 20.712 8.05888C21.46 8.07288 22.202 8.21488 22.902 8.47888C23.4995 8.71069 24.0423 9.06444 24.4956 9.5176C24.949 9.97075 25.3029 10.5134 25.535 11.1109C25.802 11.8209 25.945 12.5709 25.956 13.3279C26.012 14.2859 26.012 14.5989 26.012 17.0389C26.012 19.4789 25.998 19.7989 25.956 20.7459C25.941 21.4941 25.799 22.2343 25.536 22.9349C25.3033 23.5322 24.949 24.0746 24.4956 24.5277C24.0422 24.9808 23.4995 25.3347 22.902 25.5669C22.202 25.8289 21.463 25.9709 20.716 25.9859C19.761 26.0409 19.448 26.0409 17.002 26.0409ZM16.968 9.58788C14.522 9.58788 14.268 9.59988 13.313 9.64288C12.7426 9.65034 12.1778 9.75553 11.643 9.95388C11.2529 10.1034 10.8985 10.333 10.6026 10.6279C10.3067 10.9227 10.0758 11.2763 9.92495 11.6659C9.72495 12.2059 9.61995 12.7769 9.61395 13.3529C9.56095 14.3219 9.56095 14.5759 9.56095 17.0049C9.56095 19.4049 9.56995 19.6959 9.61395 20.6589C9.62295 21.2289 9.72795 21.7939 9.92495 22.3289C10.231 23.1159 10.855 23.7379 11.644 24.0399C12.1781 24.2395 12.7428 24.3447 13.313 24.3509C14.281 24.4069 14.536 24.4069 16.968 24.4069C19.421 24.4069 19.675 24.3949 20.622 24.3509C21.1924 24.344 21.7573 24.2388 22.292 24.0399C22.6799 23.8892 23.0323 23.6595 23.3267 23.3653C23.6211 23.071 23.8511 22.7188 24.002 22.3309C24.202 21.7909 24.307 21.2189 24.313 20.6429H24.324C24.367 19.6869 24.367 19.4319 24.367 16.9889C24.367 14.5459 24.356 14.2889 24.313 13.3339C24.3039 12.7643 24.1988 12.2004 24.002 11.6659C23.8514 11.2774 23.6216 10.9246 23.3272 10.6298C23.0328 10.3351 22.6802 10.1049 22.292 9.95388C21.757 9.75388 21.192 9.64988 20.622 9.64288C19.655 9.58788 19.402 9.58788 16.968 9.58788ZM17.002 21.6239C16.0875 21.6245 15.1935 21.3539 14.4328 20.8463C13.6722 20.3387 13.0792 19.617 12.7288 18.7723C12.3784 17.9277 12.2864 16.9981 12.4643 16.1012C12.6423 15.2042 13.0823 14.3802 13.7286 13.7333C14.3749 13.0865 15.1985 12.6458 16.0953 12.4671C16.9921 12.2883 17.9218 12.3796 18.7667 12.7292C19.6116 13.0789 20.3339 13.6713 20.8421 14.4314C21.3504 15.1916 21.6218 16.0855 21.622 16.9999C21.6204 18.2251 21.1332 19.3997 20.2673 20.2664C19.4013 21.1331 18.2271 21.6212 17.002 21.6239ZM17.002 13.9979C16.4086 13.9979 15.8286 14.1738 15.3352 14.5035C14.8419 14.8331 14.4574 15.3017 14.2303 15.8498C14.0033 16.398 13.9438 17.0012 14.0596 17.5832C14.1754 18.1651 14.4611 18.6996 14.8806 19.1192C15.3002 19.5388 15.8347 19.8245 16.4167 19.9402C16.9986 20.056 17.6018 19.9966 18.15 19.7695C18.6982 19.5425 19.1667 19.1579 19.4964 18.6646C19.826 18.1712 20.002 17.5912 20.002 16.9979C20.0001 16.2028 19.6834 15.4408 19.1212 14.8786C18.559 14.3164 17.797 13.9997 17.002 13.9979ZM21.802 13.2849C21.6604 13.2844 21.5203 13.256 21.3897 13.2013C21.2591 13.1466 21.1406 13.0668 21.0409 12.9663C20.8394 12.7634 20.7269 12.4888 20.728 12.2029C20.729 11.917 20.8436 11.6432 21.0465 11.4418C21.2494 11.2404 21.524 11.1278 21.81 11.1289C22.0959 11.1299 22.3696 11.2445 22.571 11.4475C22.7725 11.6504 22.885 11.925 22.884 12.2109C22.8829 12.4968 22.7683 12.7706 22.5654 12.972C22.3625 13.1734 22.0879 13.2859 21.802 13.2849Z" fill="black"/>
<circle cx="17" cy="17" r="16.75" stroke="black" stroke-width="0.5"/>
</svg>
