<svg width="22" height="22" viewBox="0 0 22 22" fill="none" xmlns="http://www.w3.org/2000/svg">
<circle cx="11" cy="11" r="11" fill="#E31E24"/>
<path d="M14.5 4H7.5C7.23478 4 6.98043 4.10536 6.79289 4.29289C6.60536 4.48043 6.5 4.73478 6.5 5V17C6.5 17.2652 6.60536 17.5196 6.79289 17.7071C6.98043 17.8946 7.23478 18 7.5 18H14.5C14.7652 18 15.0196 17.8946 15.2071 17.7071C15.3946 17.5196 15.5 17.2652 15.5 17V5C15.5 4.73478 15.3946 4.48043 15.2071 4.29289C15.0196 4.10536 14.7652 4 14.5 4ZM7.5 5H14.5V14H7.5V5ZM7.5 17V15H14.5V17H7.5Z" fill="white"/>
<path d="M10.5 15.5H11.5V16.5H10.5V15.5Z" fill="white"/>
</svg>
